<svg id="Calque_1" data-name="Calque 1" xmlns="http://www.w3.org/2000/svg" viewBox="0 0 120 120"><defs><style>.cls-1{fill:#231f20;}.cls-2{fill:#0072bc;}.cls-3{fill:#8dc63f;}.cls-4{fill:#0aa245;}</style></defs><title>logo stam</title><path class="cls-1" d="M31.37,87.59h.56L31,92.35h1.44l-.09.49h-2Z"/><path class="cls-1" d="M36.06,92.84c0-.21,0-.42,0-.71h0c-.38.64-.71.78-1,.78-.44,0-.71-.38-.71-1.06C34.4,90.7,35,89,36.47,89a1.82,1.82,0,0,1,.69.12l-.43,2.16a9,9,0,0,0-.17,1.55Zm.47-3.35-.23,0c-.84,0-1.31,1.38-1.33,2.21,0,.47.08.74.35.74s.78-.74.93-1.49Z"/><path class="cls-1" d="M43.3,92.78a1.62,1.62,0,0,1-.61.11c-.76,0-1-.61-1-1.35,0-1.1.64-2.52,1.87-2.52a.91.91,0,0,1,.38.06l-.15.48a1,1,0,0,0-.28,0c-.79,0-1.25,1.12-1.25,2,0,.56.17.93.6.93a1.45,1.45,0,0,0,.46-.09Z"/><path class="cls-1" d="M45.37,92.84l.71-3.77h.56l-.72,3.77Zm1.13-4.36c-.2,0-.3-.15-.29-.37a.41.41,0,0,1,.38-.39.29.29,0,0,1,.3.36.38.38,0,0,1-.39.4Z"/><path class="cls-1" d="M49.85,88.19l-.17.88h.71l-.08.44H49.6l-.41,2.15a2.5,2.5,0,0,0,0,.48c0,.18.07.28.25.28a.82.82,0,0,0,.24,0l-.05.44a1.41,1.41,0,0,1-.4,0,.57.57,0,0,1-.64-.6,3,3,0,0,1,.08-.61L49,89.51h-.46l.08-.44h.46l.12-.64Z"/><path class="cls-1" d="M53.73,92.66a1.79,1.79,0,0,1-.89.23c-.79,0-1.05-.61-1.05-1.33,0-1,.57-2.55,1.65-2.55a.77.77,0,0,1,.78.86c0,.91-.81,1.3-1.84,1.3a2.48,2.48,0,0,0,0,.76.58.58,0,0,0,.58.49,1.24,1.24,0,0,0,.67-.2Zm0-2.76c0-.26-.11-.41-.34-.41s-.69.42-.89,1.23c.6,0,1.23-.21,1.23-.81Zm.81-2.32-.88,1H53.2l.67-1Z"/><path class="cls-1" d="M60.09,88.19l-.18.88h.72l-.08.44h-.72l-.4,2.15a2.68,2.68,0,0,0-.06.48c0,.18.08.28.26.28a.86.86,0,0,0,.24,0l0,.44a1.48,1.48,0,0,1-.41,0,.57.57,0,0,1-.63-.6,3,3,0,0,1,.08-.61l.41-2.17h-.45l.08-.44h.46l.12-.64Z"/><path class="cls-1" d="M62,92.84l1-5.39h.57l-.41,2.15h0a1.12,1.12,0,0,1,.93-.59c.46,0,.64.35.64.76a3,3,0,0,1-.07.63l-.46,2.44h-.56l.47-2.46a2.67,2.67,0,0,0,0-.5c0-.24-.1-.39-.32-.39-.38,0-.78.56-.9,1.2l-.41,2.15Z"/><path class="cls-1" d="M68.68,92.66a1.79,1.79,0,0,1-.89.23c-.8,0-1.05-.61-1.05-1.33,0-1,.57-2.55,1.64-2.55a.77.77,0,0,1,.78.86c0,.91-.81,1.3-1.84,1.3a2.84,2.84,0,0,0,0,.76.58.58,0,0,0,.58.49,1.24,1.24,0,0,0,.67-.2Zm-.05-2.76c0-.26-.11-.41-.34-.41s-.69.42-.89,1.23c.6,0,1.23-.21,1.23-.81Z"/><path class="cls-1" d="M70.8,92.84l.47-2.53a10.24,10.24,0,0,0,.16-1.24h.49a5.33,5.33,0,0,1-.06.71h0c.23-.47.56-.77.94-.77h.1l-.11.59h-.07c-.5,0-.92.7-1,1.27l-.37,2Z"/><path class="cls-1" d="M74.28,92.84l.46-2.48c.11-.54.16-1,.2-1.29h.49l-.06.61h0a1.2,1.2,0,0,1,1-.67.64.64,0,0,1,.61.66A1.2,1.2,0,0,1,78,89c.44,0,.63.35.63.75a3.85,3.85,0,0,1-.08.69l-.45,2.39h-.56L78,90.43a3.55,3.55,0,0,0,.06-.57c0-.23-.1-.37-.31-.37s-.74.51-.88,1.25l-.4,2.1H75.9l.45-2.41a2.6,2.6,0,0,0,.06-.56c0-.24-.09-.38-.3-.38s-.75.54-.88,1.25l-.4,2.1Z"/><path class="cls-1" d="M82.21,92.84c0-.21,0-.42.05-.71h0c-.37.64-.71.78-1,.78-.44,0-.7-.38-.7-1.06,0-1.15.61-2.84,2.06-2.84a1.92,1.92,0,0,1,.7.12l-.44,2.16a8.08,8.08,0,0,0-.16,1.55Zm.48-3.35-.24,0c-.84,0-1.31,1.38-1.33,2.21,0,.47.08.74.35.74s.79-.74.94-1.49Z"/><path class="cls-1" d="M85,92.84l1-5.39h.57l-1,5.39Z"/><path class="cls-1" d="M90,92.66a1.79,1.79,0,0,1-.89.23c-.79,0-1-.61-1-1.33,0-1,.57-2.55,1.65-2.55a.76.76,0,0,1,.77.86c0,.91-.8,1.3-1.83,1.3a2.48,2.48,0,0,0,0,.76.57.57,0,0,0,.57.49,1.3,1.3,0,0,0,.68-.2Zm0-2.76c0-.26-.11-.41-.34-.41s-.7.42-.9,1.23c.61,0,1.24-.21,1.24-.81Z"/><path class="cls-2" d="M42.14,68.16H39.77v-7.4c0-2.36-1.22-2.61-1.75-2.61a1.86,1.86,0,0,0-1.75,1.48A3.9,3.9,0,0,0,36.06,61v7.2H33.72V56.53h2.37v1.78l.41-.45.48-.53a3.08,3.08,0,0,1,2.32-1c1.92,0,2.85,1.38,2.85,4.22v7.61Z"/><path class="cls-2" d="M17.16,64.66a5.32,5.32,0,0,0-3-4.65c-1.84-1.1-2.6-1.77-2.6-3.06a2.28,2.28,0,0,1,2.54-2.2,4.84,4.84,0,0,1,1.8.33l.14.06,0-.14.28-2a6.37,6.37,0,0,0-2.21-.4c-3.11,0-5.12,1.85-5.12,4.72,0,1,.4,2.9,3.11,4.54,1.46.95,2.42,1.69,2.42,3.17a2.15,2.15,0,0,1-1.13,2l-.23.14a5.84,5.84,0,0,1,1.47,1.75l.3-.18A4.61,4.61,0,0,0,17.16,64.66Z"/><path class="cls-2" d="M31.17,68.16H28.8V60.35a3.22,3.22,0,0,0,1.19.22,3.1,3.1,0,0,0,1.18-.22v7.81Z"/><path class="cls-2" d="M30,58.77a1.48,1.48,0,1,1,1.47-1.47A1.47,1.47,0,0,1,30,58.77Z"/><path class="cls-2" d="M23.08,56.11a7.23,7.23,0,0,0-3.22.65L20,58.13l0,.16.15-.06a5.66,5.66,0,0,1,2.06-.37A2.35,2.35,0,0,1,24.3,59a3.14,3.14,0,0,1,.34,1.72l0,.25.1.12h-.86c-2.07,0-5.53.56-5.53,4.27a2.85,2.85,0,0,0,3,3c3.92,0,5.68-4.6,5.68-7.86C27,57.58,25.67,56.11,23.08,56.11Zm.59,6.56H24l.32,0h.14l0,.13-.07.31c-.41,2.06-1.44,3.39-2.61,3.39-.82,0-1.3-.56-1.3-1.55C20.41,63.6,21.72,62.67,23.67,62.67Z"/><path class="cls-2" d="M46.23,58.73v-.24h3.06V56.41H46.23V52.57l-2.36.76V65s0,.08,0,.12a4.92,4.92,0,0,0,.88,3.23,3,3,0,0,0,2.33.89A5.22,5.22,0,0,0,48.83,69l-.09-1.8a4.51,4.51,0,0,1-1,.09c-.85,0-1.55-.52-1.56-2.41V58.73Z"/><path class="cls-3" d="M72,40.81a24.57,24.57,0,0,1-3.06-5.44A19.64,19.64,0,0,0,44.5,45a20.34,20.34,0,0,0-2.13,7.09L47,50.56a10.75,10.75,0,0,1,2.41-2.35c3.95-2.74,10.43-2,13.87,1.63a14.28,14.28,0,0,1,2.74,14.7,15.69,15.69,0,0,1-4.4,6.65v2.34a17.45,17.45,0,0,0,5.93-.9c.63-.22,1.24-.45,1.81-.7a23.22,23.22,0,0,0,5.26-3.24c.61-.5,1-.85,1-.86.19-.19.33-.39.51-.58a20.44,20.44,0,0,0,5.29-17,18.48,18.48,0,0,0-1.29-4.46C77,45.57,74.14,43.68,72,40.81Z"/><path class="cls-2" d="M97.23,45a12,12,0,0,0-9.38-3.93,8,8,0,0,1-1.28,2.22A7.06,7.06,0,0,1,82,45.77a16.36,16.36,0,0,1,1.62,4.95,18,18,0,0,1-2.42,12A22.81,22.81,0,0,1,79.24,66a17.87,17.87,0,0,0,1.57,1.18,7.75,7.75,0,0,1,4.89-1.71,5.56,5.56,0,0,1,4.46,2,6.15,6.15,0,0,1,1.08,2.27,16.25,16.25,0,0,0,3.33-.67.27.27,0,0,0,.17-.2s0,0,0-.07a.27.27,0,0,0-.21-.26l-.81-.23a12.48,12.48,0,0,1-2.44-.94c-2.8-1.68-7.88-7.12-4.73-12.38a5.24,5.24,0,0,1,3.23-2.46,4.75,4.75,0,0,1,3.61.58A3.63,3.63,0,0,1,95,58.05a3.14,3.14,0,0,1-1.93,1.32,2.25,2.25,0,0,1-1.74-.18,2.52,2.52,0,0,1-.86-3.44A.28.28,0,0,0,90,55.4,3.26,3.26,0,0,0,89.76,60a4.66,4.66,0,0,0,4.82,1.5,7.18,7.18,0,0,0,3-1.88,10,10,0,0,0,2.31-3.75A11.15,11.15,0,0,0,97.23,45Z"/><path class="cls-4" d="M71.44,25.91l-1.33,0L69,26,68,26l.21.93.23,1.1c2,9.78,6.79,16.12,12.34,16.12,3.82,0,6.11-2.7,6.11-7.34,0-6.54-6.22-10.94-15.47-10.94Z"/><path class="cls-2" d="M26.09,72a2.84,2.84,0,0,0-2.21,1l-.45.52-.35.4A2.37,2.37,0,0,0,20.65,72a2.83,2.83,0,0,0-2.2,1l-.45.52-.39.45V72.19H15.36V83.82h2.23v-7.2a4.16,4.16,0,0,1,.2-1.34,1.79,1.79,0,0,1,1.66-1.48c.5,0,1.67.26,1.67,2.61v7.41h2.24V76.2c0-.19,0-.38,0-.56,0-.56.21-1.84,1.53-1.84.5,0,1.67.26,1.67,2.61v7.41h2.24V76.2C28.79,73.36,27.91,72,26.09,72Z"/><path class="cls-2" d="M102.46,83.91c-1.92,0-2.85-1.38-2.85-4.23v-7.6H102v7.4c0,2.35,1.23,2.61,1.76,2.61a1.84,1.84,0,0,0,1.75-1.49,3.86,3.86,0,0,0,.21-1.33V72.08H108V83.71h-2.37V81.92l-.41.46-.48.52a3,3,0,0,1-2.32,1Z"/><path class="cls-2" d="M6.26,84.17A4,4,0,0,1,2.17,80c0-5.11,4.77-5.87,7.61-5.87h1l0-.22,0-.26a4.33,4.33,0,0,0-.47-2.33A3.19,3.19,0,0,0,7.5,69.82a8.11,8.11,0,0,0-3.06.59l-.19-2.27a11.88,11.88,0,0,1,4.46-.78c4.44,0,5.37,3.27,5.37,6a14.13,14.13,0,0,1-2,7.27,6.88,6.88,0,0,1-5.81,3.53ZM9.52,76.4c-2.66,0-4.44,1.26-4.44,3.14,0,1.34.65,2.11,1.75,2.11,1.59,0,3-1.82,3.55-4.63l.06-.31.06-.27-.28,0h-.7Z"/><path class="cls-2" d="M83.26,84c-4.45,0-5.38-3.27-5.38-6a14.12,14.12,0,0,1,2-7.26,6.86,6.86,0,0,1,5.81-3.53,3.94,3.94,0,0,1,4.09,4.21c0,5.11-4.76,5.87-7.6,5.87h-1v.23l0,.26a4.13,4.13,0,0,0,.46,2.32,3.16,3.16,0,0,0,2.85,1.48,7.68,7.68,0,0,0,3.06-.6l.19,2.28a11.82,11.82,0,0,1-4.45.78ZM85.13,69.7c-1.59,0-3,1.82-3.55,4.63l-.06.31,0,.28h1a5.73,5.73,0,0,0,3-.75,2.74,2.74,0,0,0,1.39-2.39c0-1.33-.65-2.11-1.75-2.11Z"/><path class="cls-2" d="M34.66,71.83a7.06,7.06,0,0,0-3.23.66l.12,1.37V74l.15-.05a5.67,5.67,0,0,1,2.07-.37,2.31,2.31,0,0,1,2.09,1.09,3,3,0,0,1,.34,1.71l0,.25.11.12h-.86c-2.07,0-5.54.55-5.54,4.26a2.86,2.86,0,0,0,3,3c3.92,0,5.69-4.6,5.69-7.86C38.56,73.3,37.24,71.83,34.66,71.83Zm.58,6.56H36l0,.14-.06.32c-.42,2.06-1.44,3.39-2.61,3.39-.83,0-1.3-.57-1.3-1.56C32,79.32,33.3,78.39,35.24,78.39Z"/><polygon class="cls-2" points="63.58 82.81 63.31 82.81 63.19 82.81 63.19 82.69 63.19 82.41 63.19 76.86 63.19 76.75 63.07 76.75 62.01 76.75 61.89 76.75 61.89 76.86 61.89 83.67 61.89 83.79 62.01 83.79 64.34 83.79 64.45 83.79 64.45 83.67 64.45 82.92 64.45 82.81 64.34 82.81 63.58 82.81"/><path class="cls-2" d="M69.07,76.66c-2.31,0-3.34,2.74-3.34,4.68,0,1.68.75,2.54,2.24,2.54a3.88,3.88,0,0,0,1.82-.39l0-.44,0-.15-.14,0a3.88,3.88,0,0,1-1.09.15,1.59,1.59,0,0,1-1.42-.74,2,2,0,0,1-.22-1.13V81l-.1-.12h.71c2.13,0,3.25-.86,3.25-2.47A1.62,1.62,0,0,0,69.07,76.66Zm0,3.13a2.77,2.77,0,0,1-1.46.36h-.18l-.32,0H67L67,80l.06-.32c.27-1.34,1-2.2,1.76-2.2.58,0,.94.42.94,1.11A1.41,1.41,0,0,1,69.07,79.79Z"/><path class="cls-2" d="M74.06,79.81c-.69-.41-1.11-.7-1.11-1.31a1.09,1.09,0,0,1,1.18-1.06,2.45,2.45,0,0,1,.69.1l.12,0,0-.12,0-.64a3,3,0,0,0-1-.16,2,2,0,0,0-2.17,2.06c0,.49.15,1.21,1.38,1.9.58.34,1.1.7,1.1,1.39s-.46,1.09-1.23,1.09a3,3,0,0,1-1-.19l-.12,0,0,.13-.06.67a3.69,3.69,0,0,0,1.23.21c1.5,0,2.36-.75,2.36-2.06A2.27,2.27,0,0,0,74.06,79.81Z"/><path class="cls-2" d="M56.15,83.92V83.2a2.07,2.07,0,0,1-.91.64,3.23,3.23,0,0,1-1.32.28,3.52,3.52,0,0,1-3-1.56,8.93,8.93,0,0,1,.16-8.9,3.81,3.81,0,0,1,3.19-1.75,3.49,3.49,0,0,1,1.92.55V67.7L58.33,67V83.92Zm0-9a2,2,0,0,0-1.44-.7,2.28,2.28,0,0,0-2,1A5,5,0,0,0,52,78.12c0,2.44.92,3.65,2.77,3.65a1.69,1.69,0,0,0,.76-.23,1.44,1.44,0,0,0,.59-.47Z"/><path class="cls-2" d="M94.2,71.83a6.77,6.77,0,0,0-2.47.39,9.36,9.36,0,0,1-.22,1.45l0,.2.19-.06a6,6,0,0,1,1.65-.23,2.31,2.31,0,0,1,2.1,1.1,3.07,3.07,0,0,1,.34,1.7l0,.26.11.12H95c-2,0-5.4.52-5.53,4.05l.08,1a2.76,2.76,0,0,0,2.88,2.29c3.93,0,5.69-4.6,5.69-7.86C98.1,73.3,96.79,71.83,94.2,71.83Zm.59,6.56h.28l.31,0h.15l0,.14-.06.31c-.42,2.07-1.44,3.4-2.61,3.4-.83,0-1.3-.57-1.3-1.56C91.53,79.32,92.84,78.39,94.79,78.39Z"/><path class="cls-2" d="M48.22,83.82H45.85V76.41c0-2.35-1.22-2.61-1.75-2.61a1.86,1.86,0,0,0-1.75,1.48,3.88,3.88,0,0,0-.21,1.34v7.2H39.79V72.19h2.37V74l.41-.45.48-.52a3,3,0,0,1,2.32-1c1.92,0,2.85,1.38,2.85,4.22v7.62Z"/><polygon class="cls-2" points="118.5 83.77 116.26 83.77 114.96 81.14 114.71 80.65 114.5 80.22 114.29 80.65 114.05 81.14 112.75 83.77 110.51 83.77 113.27 78.19 113.32 78.08 113.33 77.86 110.58 72.25 112.83 72.25 114.05 74.78 114.29 75.28 114.5 75.72 114.71 75.28 114.96 74.79 116.26 72.16 118.5 72.16 115.73 77.74 115.68 77.84 115.68 78.06 118.5 83.77 118.5 83.77"/></svg>